<mxfile host="app.diagrams.net" agent="Mozilla/5.0 (Windows NT 10.0; Win64; x64) AppleWebKit/537.36 (KHTML, like Gecko) Chrome/140.0.0.0 Safari/537.36" version="28.2.5">
  <diagram name="Modelo Entidad Relacion" id="WfZf_dgmcotiiSEr9XLg">
    <mxGraphModel dx="947" dy="479" grid="1" gridSize="10" guides="1" tooltips="1" connect="1" arrows="1" fold="1" page="1" pageScale="1" pageWidth="850" pageHeight="1100" math="0" shadow="0">
      <root>
        <mxCell id="0" />
        <mxCell id="1" parent="0" />
        <mxCell id="UsSsNghgbwPDF8tbLk4s-12" style="edgeStyle=orthogonalEdgeStyle;rounded=0;orthogonalLoop=1;jettySize=auto;html=1;exitX=1;exitY=0.5;exitDx=0;exitDy=0;entryX=0;entryY=0.5;entryDx=0;entryDy=0;endArrow=none;endFill=0;" edge="1" parent="1" source="V4c1LQVg80RPH1OTaqnS-1" target="UsSsNghgbwPDF8tbLk4s-4">
          <mxGeometry relative="1" as="geometry">
            <mxPoint x="160" y="89.71428571428572" as="targetPoint" />
          </mxGeometry>
        </mxCell>
        <mxCell id="V4c1LQVg80RPH1OTaqnS-1" value="Usuario" style="whiteSpace=wrap;html=1;align=center;" parent="1" vertex="1">
          <mxGeometry x="20" y="70" width="100" height="40" as="geometry" />
        </mxCell>
        <mxCell id="UsSsNghgbwPDF8tbLk4s-13" style="edgeStyle=orthogonalEdgeStyle;rounded=0;orthogonalLoop=1;jettySize=auto;html=1;exitX=0;exitY=0.5;exitDx=0;exitDy=0;endArrow=none;endFill=0;" edge="1" parent="1" source="V4c1LQVg80RPH1OTaqnS-3">
          <mxGeometry relative="1" as="geometry">
            <mxPoint x="150" y="69.71428571428572" as="targetPoint" />
          </mxGeometry>
        </mxCell>
        <mxCell id="V4c1LQVg80RPH1OTaqnS-3" value="Nombre" style="ellipse;whiteSpace=wrap;html=1;align=center;" parent="1" vertex="1">
          <mxGeometry x="180" y="50" width="100" height="40" as="geometry" />
        </mxCell>
        <mxCell id="UsSsNghgbwPDF8tbLk4s-15" style="edgeStyle=orthogonalEdgeStyle;rounded=0;orthogonalLoop=1;jettySize=auto;html=1;exitX=0;exitY=0.5;exitDx=0;exitDy=0;endArrow=none;endFill=0;" edge="1" parent="1" source="UsSsNghgbwPDF8tbLk4s-1">
          <mxGeometry relative="1" as="geometry">
            <mxPoint x="150" y="119.71428571428572" as="targetPoint" />
          </mxGeometry>
        </mxCell>
        <mxCell id="UsSsNghgbwPDF8tbLk4s-1" value="ApellidoP" style="ellipse;whiteSpace=wrap;html=1;align=center;" vertex="1" parent="1">
          <mxGeometry x="180" y="100" width="100" height="40" as="geometry" />
        </mxCell>
        <mxCell id="UsSsNghgbwPDF8tbLk4s-14" style="edgeStyle=orthogonalEdgeStyle;rounded=0;orthogonalLoop=1;jettySize=auto;html=1;endArrow=none;endFill=0;" edge="1" parent="1" source="UsSsNghgbwPDF8tbLk4s-2">
          <mxGeometry relative="1" as="geometry">
            <mxPoint x="150" y="80" as="targetPoint" />
          </mxGeometry>
        </mxCell>
        <mxCell id="UsSsNghgbwPDF8tbLk4s-2" value="ApellidoM" style="ellipse;whiteSpace=wrap;html=1;align=center;" vertex="1" parent="1">
          <mxGeometry x="180" y="150" width="100" height="40" as="geometry" />
        </mxCell>
        <mxCell id="UsSsNghgbwPDF8tbLk4s-7" style="edgeStyle=orthogonalEdgeStyle;rounded=0;orthogonalLoop=1;jettySize=auto;html=1;entryX=0.5;entryY=1;entryDx=0;entryDy=0;endArrow=ERone;endFill=0;" edge="1" parent="1" source="UsSsNghgbwPDF8tbLk4s-3" target="V4c1LQVg80RPH1OTaqnS-1">
          <mxGeometry relative="1" as="geometry" />
        </mxCell>
        <mxCell id="UsSsNghgbwPDF8tbLk4s-8" style="edgeStyle=orthogonalEdgeStyle;rounded=0;orthogonalLoop=1;jettySize=auto;html=1;endArrow=ERone;endFill=0;" edge="1" parent="1" source="UsSsNghgbwPDF8tbLk4s-3" target="UsSsNghgbwPDF8tbLk4s-6">
          <mxGeometry relative="1" as="geometry" />
        </mxCell>
        <mxCell id="UsSsNghgbwPDF8tbLk4s-3" value="tiene" style="shape=rhombus;perimeter=rhombusPerimeter;whiteSpace=wrap;html=1;align=center;" vertex="1" parent="1">
          <mxGeometry x="30" y="230" width="80" height="60" as="geometry" />
        </mxCell>
        <mxCell id="UsSsNghgbwPDF8tbLk4s-4" value="id_usuario" style="ellipse;whiteSpace=wrap;html=1;align=center;fontStyle=5;" vertex="1" parent="1">
          <mxGeometry x="180" width="100" height="40" as="geometry" />
        </mxCell>
        <mxCell id="UsSsNghgbwPDF8tbLk4s-16" style="edgeStyle=orthogonalEdgeStyle;rounded=0;orthogonalLoop=1;jettySize=auto;html=1;endArrow=none;endFill=0;" edge="1" parent="1" source="UsSsNghgbwPDF8tbLk4s-5">
          <mxGeometry relative="1" as="geometry">
            <mxPoint x="150" y="170" as="targetPoint" />
          </mxGeometry>
        </mxCell>
        <mxCell id="UsSsNghgbwPDF8tbLk4s-5" value="id_genero" style="ellipse;whiteSpace=wrap;html=1;align=center;fontStyle=4;" vertex="1" parent="1">
          <mxGeometry x="180" y="200" width="100" height="40" as="geometry" />
        </mxCell>
        <mxCell id="UsSsNghgbwPDF8tbLk4s-6" value="Genero" style="whiteSpace=wrap;html=1;align=center;" vertex="1" parent="1">
          <mxGeometry x="20" y="370" width="100" height="40" as="geometry" />
        </mxCell>
        <mxCell id="UsSsNghgbwPDF8tbLk4s-11" style="edgeStyle=orthogonalEdgeStyle;rounded=0;orthogonalLoop=1;jettySize=auto;html=1;exitX=0;exitY=0.5;exitDx=0;exitDy=0;endArrow=none;endFill=0;" edge="1" parent="1" source="UsSsNghgbwPDF8tbLk4s-10" target="UsSsNghgbwPDF8tbLk4s-6">
          <mxGeometry relative="1" as="geometry" />
        </mxCell>
        <mxCell id="UsSsNghgbwPDF8tbLk4s-10" value="id_genero" style="ellipse;whiteSpace=wrap;html=1;align=center;fontStyle=5;" vertex="1" parent="1">
          <mxGeometry x="150" y="370" width="100" height="40" as="geometry" />
        </mxCell>
      </root>
    </mxGraphModel>
  </diagram>
</mxfile>
